<svg width="34" height="36" viewBox="0 0 34 36" fill="none" xmlns="http://www.w3.org/2000/svg">
<g clip-path="url(#clip0_43_1781)">
<path d="M15.8298 5.09678C15.1485 5.09678 13.9377 4.99799 13.698 4.09509C13.4151 3.03622 14.8398 2.26502 15.3072 2.012C16.2472 1.5025 17.5356 1.01378 18.9361 0.637719C20.3349 0.259921 21.694 0.0363618 22.7616 0.00516748C23.2946 -0.0104297 24.909 -0.0572212 25.1918 1.00165C25.4747 2.06053 24.05 2.83172 23.5826 3.08474C22.6426 3.59425 21.3542 4.08296 19.9554 4.45903C18.5566 4.83509 17.1975 5.06038 16.1299 5.09158C16.0505 5.09331 15.9488 5.09678 15.8315 5.09678H15.8298ZM15.4796 3.61505C16.2075 3.6705 17.6253 3.56306 19.576 3.03968C21.525 2.51458 22.8082 1.89416 23.4101 1.4817C22.684 1.42624 21.2645 1.53369 19.3138 2.05706C17.3648 2.58217 16.0816 3.20259 15.4796 3.61678V3.61505Z" fill="#63CCCA"/>
<path d="M33.0192 8.159C31.5825 8.22832 30.6149 8.30457 29.9043 8.41375C29.2989 7.6339 28.5693 6.95629 27.7431 6.41732C27.7431 6.41732 27.7431 6.41732 27.7414 6.41732C27.4413 6.22149 27.1274 6.04645 26.8031 5.88875C26.7428 5.85928 26.6841 5.82809 26.6238 5.80036C26.4858 5.73797 26.3478 5.67905 26.2064 5.62186C26.1063 5.582 26.0028 5.54561 25.9011 5.50748C25.7786 5.46416 25.6562 5.4191 25.532 5.38097C25.3147 5.31338 25.0922 5.25619 24.8662 5.20767C24.7765 5.18861 24.6851 5.17301 24.5937 5.15568C24.4178 5.12275 24.2401 5.09502 24.0608 5.07249C23.9745 5.0621 23.89 5.0517 23.8038 5.04303C23.5468 5.01877 23.2898 5.00317 23.0276 5.00317C23.0224 5.00317 23.0173 5.00317 23.0121 5.00317C23.0035 5.00317 22.9966 5.00317 22.9879 5.00317C22.7172 5.00317 22.4498 5.01877 22.1842 5.04477C22.0928 5.05343 22.0031 5.06903 21.9117 5.07943C21.7306 5.10196 21.5495 5.12968 21.3718 5.16261C21.2701 5.18167 21.17 5.2042 21.0717 5.22847C20.9044 5.26659 20.7388 5.30992 20.5767 5.35844C20.4801 5.38617 20.3835 5.41563 20.287 5.44683C20.1162 5.50402 19.9489 5.56814 19.7816 5.63399C19.7005 5.66692 19.6195 5.69638 19.5401 5.73104C19.3004 5.83676 19.0641 5.9494 18.8364 6.07591C18.8157 6.08804 18.795 6.10191 18.7743 6.11404C18.5656 6.23015 18.3638 6.35666 18.1655 6.48837C18.0913 6.53863 18.0223 6.59235 17.9499 6.64434C17.8085 6.74659 17.6688 6.85057 17.5342 6.95975C17.4566 7.02214 17.3824 7.088 17.3066 7.15212C17.1806 7.2613 17.0582 7.37568 16.9375 7.49179C16.8667 7.56111 16.7978 7.6287 16.7288 7.69975C16.6046 7.82973 16.4838 7.9649 16.3683 8.10354C16.3148 8.16593 16.2596 8.22659 16.2079 8.29071C16.044 8.49521 15.8871 8.7049 15.7422 8.92326C15.7249 8.94752 15.7111 8.97525 15.6956 9.00125C15.568 9.19708 15.4473 9.39811 15.3351 9.60434C15.292 9.68232 15.2558 9.76204 15.2144 9.84176C15.1333 10.0012 15.0557 10.1624 14.9833 10.327C14.9436 10.4171 14.9074 10.5107 14.8712 10.6026C14.8074 10.7655 14.7487 10.9284 14.6935 11.0965C14.6625 11.19 14.6314 11.2819 14.6038 11.3772C14.59 11.4257 14.5711 11.4725 14.5573 11.5228C14.5538 11.5367 14.5538 11.5574 14.5538 11.5748C14.5262 11.677 14.4986 11.781 14.4745 11.885C14.4745 11.885 14.4745 11.8867 14.471 11.8885C13.7932 14.202 12.8774 16.396 11.7614 18.467C10.1798 21.193 8.49126 23.6158 6.59229 25.7873C6.56125 25.8219 6.53192 25.8549 6.5026 25.8895C6.41464 25.9883 6.32495 26.0853 6.23699 26.1824C5.74543 26.7196 5.24352 27.2447 4.72609 27.7542C4.72782 27.756 4.72954 27.7577 4.73299 27.7594C3.31006 29.1667 1.76984 30.4629 0.0761127 31.6587C-0.236071 31.8788 0.493507 32.5322 0.795341 32.4542C1.71292 31.6449 2.75295 30.9829 3.87578 30.4837C4.04653 30.4058 4.21901 30.3312 4.39321 30.2619C4.40528 30.2567 4.41563 30.2533 4.42598 30.2481C5.73163 29.7316 7.13214 29.4561 8.5775 29.4491H8.58095C8.58095 29.4491 8.58785 29.4491 8.5913 29.4491C8.59475 29.4491 8.59647 29.4491 8.59992 29.4491C9.14323 29.463 9.69515 29.4318 10.235 29.3556C15.6973 28.5826 19.5039 23.4044 18.7226 17.8102C18.6657 17.4081 18.9451 17.0373 19.3452 16.9801C19.7488 16.9246 20.1145 17.2036 20.1714 17.6057C21.0648 24.0023 16.6994 29.9257 10.4385 30.8096C10.0298 30.8667 9.61409 30.8962 9.20014 30.9083C11.194 31.8476 13.412 32.3814 15.756 32.3814C23 32.3814 29.0885 27.3747 30.8477 20.5865C31.4048 18.8656 31.786 16.7097 31.786 13.9126C31.786 12.7654 31.5704 11.6718 31.1806 10.6649C32.8347 9.64766 33.2589 8.67371 33.0175 8.15553L33.0192 8.159ZM26.917 11.2958C26.6462 11.7463 26.2167 12.0687 25.7045 12.2073C25.5285 12.2541 25.3492 12.2784 25.1715 12.2784C24.8335 12.2784 24.5023 12.1935 24.2022 12.0271C23.7348 11.7689 23.4019 11.3443 23.2656 10.8313C23.1622 10.4397 23.3933 10.0359 23.7831 9.93188C24.1746 9.82616 24.5747 10.0601 24.6782 10.4518C24.711 10.5731 24.7921 10.6753 24.9076 10.7395C25.0335 10.8088 25.1819 10.8244 25.3267 10.7863C25.4716 10.7464 25.5924 10.658 25.6665 10.535C25.7355 10.4206 25.7545 10.2906 25.7217 10.1693C25.6165 9.77764 25.8493 9.37385 26.2391 9.26987C26.6307 9.16415 27.0308 9.39811 27.1343 9.78977C27.2706 10.301 27.1947 10.8365 26.917 11.2958Z" fill="#63CCCA"/>
<path d="M18.0292 35.9999C17.4911 35.9999 17.0547 35.5615 17.0547 35.0208V30.1458C17.0547 29.6051 17.4911 29.1666 18.0292 29.1666C18.5673 29.1666 19.0037 29.6051 19.0037 30.1458V35.0208C19.0037 35.5615 18.5673 35.9999 18.0292 35.9999Z" fill="#63CCCA"/>
<path d="M22.1317 35.9999C21.5936 35.9999 21.1572 35.5615 21.1572 35.0208V30.1458C21.1572 29.6051 21.5936 29.1666 22.1317 29.1666C22.6699 29.1666 23.1062 29.6051 23.1062 30.1458V35.0208C23.1062 35.5615 22.6699 35.9999 22.1317 35.9999Z" fill="#63CCCA"/>
</g>
<defs>
<clipPath id="clip0_43_1781">
<rect width="33.0811" height="36" fill="white"/>
</clipPath>
</defs>
</svg>
